<svg width="22" height="22" viewBox="0 0 22 22" fill="none" xmlns="http://www.w3.org/2000/svg">
<path d="M7.21944 6.20921C6.9405 5.93026 6.48824 5.93026 6.2093 6.20921C5.93035 6.48816 5.93035 6.94042 6.2093 7.21936L9.98986 11L6.20921 14.7806C5.93026 15.0596 5.93026 15.5118 6.20921 15.7908C6.48815 16.0697 6.94041 16.0697 7.21935 15.7908L11 12.0101L14.7806 15.7908C15.0596 16.0697 15.5118 16.0697 15.7908 15.7908C16.0697 15.5118 16.0697 15.0596 15.7908 14.7806L12.0102 11L15.7907 7.21937C16.0696 6.94043 16.0696 6.48817 15.7907 6.20922C15.5118 5.93027 15.0595 5.93027 14.7806 6.20922L11 9.9898L7.21944 6.20921Z" fill="#F8DD4A"/>
<circle cx="11" cy="11" r="10.5" stroke="#F8DD4A"/>
</svg>
