<svg width="14" height="14" viewBox="0 0 14 14" fill="none" xmlns="http://www.w3.org/2000/svg">
<path d="M1.70722 0.292893C1.3167 -0.0976311 0.683537 -0.0976311 0.293015 0.292893C-0.0975058 0.683417 -0.0975058 1.31658 0.293015 1.70711L5.5858 6.99994L0.292891 12.2929C-0.0976303 12.6834 -0.0976303 13.3166 0.292891 13.7071C0.683412 14.0976 1.31657 14.0976 1.70709 13.7071L7.00001 8.41415L12.2929 13.7071C12.6834 14.0976 13.3166 14.0976 13.7071 13.7071C14.0976 13.3166 14.0976 12.6834 13.7071 12.2929L8.41421 6.99994L13.707 1.70712C14.0975 1.3166 14.0975 0.683433 13.707 0.292908C13.3165 -0.0976163 12.6833 -0.0976163 12.2928 0.292908L7.00001 5.58572L1.70722 0.292893Z" fill="#14111F"/>
</svg>
