<svg width="16" height="12" viewBox="0 0 16 12" fill="none" xmlns="http://www.w3.org/2000/svg">
<path d="M13.4282 3.63812H8.74419C9.11891 2.795 8.93155 1.76453 8.2758 1.0151C8.18212 0.827739 7.99476 0.73406 7.71372 0.640381C7.43268 0.640381 7.24532 0.640381 7.05797 0.827739L3.68551 3.63812H1.53089C0.968814 3.63812 0.406738 4.20019 0.406738 4.76227V10.6641C0.406738 11.3198 0.968814 11.7882 1.53089 11.7882H3.87287H4.6223H7.339C8.2758 11.7882 9.21259 11.4135 9.96202 10.6641L11.4609 9.07151C11.8356 8.6968 12.023 8.13472 12.1166 7.57265H13.4282C14.5523 7.57265 15.3954 6.63585 15.3954 5.60538C15.3954 4.57491 14.4586 3.63812 13.4282 3.63812ZM1.81193 5.04331H3.21712V10.4767H1.81193V5.04331ZM13.4282 6.26114H11.4609C11.0862 6.26114 10.7115 6.54217 10.7115 7.01057V7.19793C10.7115 7.57265 10.5241 8.04104 10.4304 8.2284L8.93155 9.82095C8.55683 10.2893 7.99476 10.4767 7.339 10.4767H4.6223V4.66859L7.52636 2.32661C7.62004 2.60765 7.62004 2.98236 7.43268 3.2634L7.05797 4.01283C6.96429 4.20019 6.96429 4.48123 7.05797 4.66859C7.15164 4.85595 7.43268 5.04331 7.62004 5.04331H13.3345C13.6155 5.04331 13.8966 5.32434 13.8966 5.60538C13.8966 5.88642 13.7092 6.26114 13.4282 6.26114Z" fill="#301952"/>
</svg>
