<?xml version="1.0" encoding="iso-8859-1"?>
<!-- Generator: Adobe Illustrator 16.0.0, SVG Export Plug-In . SVG Version: 6.00 Build 0)  -->
<!DOCTYPE svg PUBLIC "-//W3C//DTD SVG 1.1//EN" "http://www.w3.org/Graphics/SVG/1.1/DTD/svg11.dtd">
<svg version="1.1" id="Capa_1" xmlns="http://www.w3.org/2000/svg" xmlns:xlink="http://www.w3.org/1999/xlink" x="0px" y="0px"
	 width="466.753px" height="466.753px" viewBox="0 0 466.753 466.753" style="enable-background:new 0 0 466.753 466.753;"
	 xml:space="preserve">
<g>
	<path d="M378.964,399.799c-6.398,0-12.794-2.441-17.678-7.32c-9.763-9.764-9.763-25.592,0-35.355
		c68.232-68.233,68.232-179.255,0-247.488c-9.763-9.764-9.763-25.593,0-35.355c9.763-9.762,25.594-9.763,35.355,0
		c42.497,42.495,65.901,98.997,65.901,159.096c0,60.1-23.404,116.604-65.901,159.101
		C391.76,397.357,385.362,399.799,378.964,399.799z M290.157,352.657c-6.398,0-12.795-2.439-17.678-7.321
		c-9.764-9.764-9.764-25.591,0-35.354c42.239-42.238,42.239-110.967,0-153.206c-9.764-9.764-9.764-25.593,0-35.355
		c9.764-9.762,25.592-9.762,35.355,0c61.733,61.735,61.733,162.184,0,223.917C302.953,350.218,296.556,352.657,290.157,352.657z
		 M213.236,7.683c13.369-13.369,24.307-8.837,24.307,10.069v431.249c0,18.907-10.938,23.438-24.307,10.069L87.542,333.376H4.209
		V133.377h83.333L213.236,7.683z"/>
</g>
<g>
</g>
<g>
</g>
<g>
</g>
<g>
</g>
<g>
</g>
<g>
</g>
<g>
</g>
<g>
</g>
<g>
</g>
<g>
</g>
<g>
</g>
<g>
</g>
<g>
</g>
<g>
</g>
<g>
</g>
</svg>
